<svg width="32" height="32" viewBox="0 0 32 32" fill="none" xmlns="http://www.w3.org/2000/svg">
  <!-- 澪火（Mioca）: 火＝炎の蒸留マーク（電光ブルー角丸地＋白い炎）。フルの澪火 emblem はロゴ/OG 用・favicon はこれ。 -->
  <defs>
    <linearGradient id="mbg" x1="3" y1="2" x2="29" y2="30" gradientUnits="userSpaceOnUse">
      <stop stop-color="#0095f6"/>
      <stop offset="1" stop-color="#4f7cff"/>
    </linearGradient>
    <linearGradient id="mfl" x1="16" y1="4" x2="16" y2="22" gradientUnits="userSpaceOnUse">
      <stop stop-color="#ffffff"/>
      <stop offset="1" stop-color="#cfe8ff"/>
    </linearGradient>
  </defs>
  <rect width="32" height="32" rx="8" fill="url(#mbg)"/>
  <path d="M16 26 C21 25.1 22.7 20.6 20.3 16.6 C19.5 15.3 18.4 14.6 18 13 C17.7 14 17 14.6 16 14.3 C17.3 11.8 16.6 8.4 14.4 5.8 C14.8 8.6 13.4 10.6 12 12.4 C10.8 14 10 15.6 10.6 17.8 C9.8 17.2 9.4 16.2 9.5 15 C8 17.4 8.6 21.4 11.6 24 C10.9 22.6 11.2 21 12.4 20 C12.6 22.6 14 24.8 16 26 Z" fill="url(#mfl)"/>
</svg>
